<svg width="48" height="48" viewBox="0 0 48 48" fill="none" xmlns="http://www.w3.org/2000/svg">
<path d="M24 46C36.1503 46 46 36.1503 46 24C46 11.8497 36.1503 2 24 2C11.8497 2 2 11.8497 2 24C2 36.1503 11.8497 46 24 46Z" fill="#65676E"/>
<path d="M18.0617 32.0738L23.9636 36.3656L29.868 32.0738L23.9636 27.7846L18.0617 32.0738ZM14.4124 20.8423C13.0338 25.0873 14.6335 29.5845 18.0591 32.0738V32.0712L20.3143 25.1315L14.4124 20.8423L21.7084 20.8449L23.9636 13.9052V13.9026H16.6675L14.4124 20.8423ZM33.5226 20.8423L31.2648 13.9026H23.9662V13.9052L26.2213 20.8449H33.5174L27.6155 25.1315L29.8707 32.0712C33.481 29.4493 34.8309 24.8688 33.5226 20.8423Z" fill="#C4C4C4"/>
</svg>
